# File created by Blade
# Date/Time:  Tue Sep 30 19:09:21 2014
#---------------------------------------------------------
:version 1.10
:name HOM
:units
  mass 1.0
  length 1.000000
  angle deg
:documentation
     Acclaim Skeleton File
:root
   axis xyz
   order TX TY TZ RX RY RZ
   position 0.000000 0.000000 0.000000
   orientation 0 0 0
:bonedata
   begin
      id 1
      name Spine_dum
      direction 0.000000 1.000000 0.000000
      length 7.508948
      axis 0.0 0.0 0.0 xyz
   end
   begin
      id 2
      name LeftUpLeg_dum
      direction 1.000000 0.000000 0.000000
      length 3.000560
      axis 0.0 0.0 0.0 xyz
   end
   begin
      id 3
      name RightUpLeg_dum
      direction -1.000000 0.000000 0.000000
      length 3.000560
      axis 0.0 0.0 0.0 xyz
   end
   begin
      id 4
      name Spine
      direction 0.000000 1.000000 0.000000
      length 0.000000
      axis 0.0 0.0 0.0 xyz
      dof rx ry rz
   end
   begin
      id 5
      name Spine_dum1
      direction 0.000000 1.000000 0.000000
      length 13.861154
      axis 0.0 0.0 0.0 xyz
   end
   begin
      id 6
      name Spine_dum2
      direction 0.000000 1.000000 0.000000
      length 8.204781
      axis 0.0 0.0 0.0 xyz
   end
   begin
      id 7
      name Spine_dum3
      direction 0.000000 1.000000 0.000000
      length 8.204781
      axis 0.0 0.0 0.0 xyz
   end
   begin
      id 8
      name Head
      direction 0.000000 1.000000 0.000000
      length 4.527550
      axis 0.0 0.0 0.0 xyz
      dof rx ry rz
   end
   begin
      id 9
      name LeftShoulder
      direction 1.000000 0.000000 0.000000
      length 6.635956
      axis 0.0 0.0 -90.0 xyz
      dof rx ry rz
   end
   begin
      id 10
      name LeftArm
      direction 1.000000 0.000000 0.000000
      length 10.274218
      axis 0.0 0.0 -90.0 xyz
      dof rx ry rz
   end
   begin
      id 11
      name LeftForeArm
      direction 1.000000 0.000000 0.000000
      length 8.522147
      axis 0.0 0.0 -90.0 xyz
      dof ry rz rx
   end
   begin
      id 12
      name LeftHand
      direction 0.000000 0.000000 0.000000
      length 0.000000
      axis 0.0 0.0 -90.0 xyz
      dof rx ry rz
   end
   begin
      id 13
      name LeftHand_dum1
      direction 0.000000 0.000000 0.000000
      length 0.000000
      axis 0.0 0.0 -90.0 xyz
   end
   begin
      id 14
      name LeftHand_dum2
      direction 1.000000 0.000000 0.000000
      length 3.937000
      axis 0.0 0.0 -90.0 xyz
   end
   begin
      id 15
      name LeftHandThumb1
      direction 0.000000 0.000000 1.000000
      length 3.937000
      axis 0.0 0.0 -90.0 xyz
      dof rx rz ry
   end
   begin
      id 16
      name RightShoulder
      direction -1.000000 0.000000 0.000000
      length 6.635956
      axis 0.0 0.0 90.0 xyz
      dof rx ry rz
   end
   begin
      id 17
      name RightArm
      direction -1.000000 0.000000 0.000000
      length 10.274218
      axis 0.0 0.0 90.0 xyz
      dof rx ry rz
   end
   begin
      id 18
      name RightForeArm
      direction -1.000000 0.000000 0.000000
      length 8.522147
      axis 0.0 0.0 90.0 xyz
      dof ry rz rx
   end
   begin
      id 19
      name RightHand
      direction 0.000000 0.000000 0.000000
      length 0.000000
      axis 0.0 0.0 90.0 xyz
      dof rx ry rz
   end
   begin
      id 20
      name RightHand_dum1
      direction 0.000000 0.000000 0.000000
      length 0.000000
      axis 0.0 0.0 90.0 xyz
   end
   begin
      id 21
      name RightHand_dum2
      direction -1.000000 0.000000 0.000000
      length 3.937000
      axis 0.0 0.0 90.0 xyz
   end
   begin
      id 22
      name RightHandThumb1
      direction 0.000000 0.000000 1.000000
      length 3.937000
      axis 0.0 0.0 90.0 xyz
      dof rx rz ry
   end
   begin
      id 23
      name LeftUpLeg
      direction 0.000000 -1.000000 0.000000
      length 16.490845
      axis 0.0 0.0 0.0 xyz
      dof rx ry rz
   end
   begin
      id 24
      name LeftLeg
      direction 0.000000 -1.000000 0.000000
      length 14.556576
      axis 0.0 0.0 0.0 xyz
      dof rx ry rz
   end
   begin
      id 25
      name LeftFoot
      direction 0.000000 -0.258819 0.965926
      length 4.831116
      axis 15.0 0.0 0.0 xyz
      dof rx ry rz
   end
   begin
      id 26
      name LeftToeBase
      direction 0.000000 0.000000 1.000000
      length 2.952750
      axis 0.0 0.0 0.0 xyz
      dof rx ry rz
   end
   begin
      id 27
      name RightUpLeg
      direction 0.000000 -1.000000 0.000000
      length 16.490845
      axis 0.0 0.0 0.0 xyz
      dof rx ry rz
   end
   begin
      id 28
      name RightLeg
      direction 0.000000 -1.000000 0.000000
      length 14.556576
      axis 0.0 0.0 0.0 xyz
      dof rx ry rz
   end
   begin
      id 29
      name RightFoot
      direction 0.000000 -0.258819 0.965926
      length 4.831116
      axis 15.0 0.0 0.0 xyz
      dof rx ry rz
   end
   begin
      id 30
      name RightToeBase
      direction 0.000000 0.000000 1.000000
      length 2.952750
      axis 0.0 0.0 0.0 xyz
      dof rx ry rz
   end
:hierarchy
   begin
      root Spine_dum LeftUpLeg_dum RightUpLeg_dum
      Spine_dum Spine
      LeftUpLeg_dum LeftUpLeg
      RightUpLeg_dum RightUpLeg
      Spine Spine_dum1 Spine_dum2 Spine_dum3
      Spine_dum1 Head
      Spine_dum2 LeftShoulder
      Spine_dum3 RightShoulder
      LeftShoulder LeftArm
      LeftArm LeftForeArm
      LeftForeArm LeftHand
      LeftHand LeftHand_dum1 LeftHand_dum2
      LeftHand_dum1 LeftHandThumb1
      RightShoulder RightArm
      RightArm RightForeArm
      RightForeArm RightHand
      RightHand RightHand_dum1 RightHand_dum2
      RightHand_dum1 RightHandThumb1
      LeftUpLeg LeftLeg
      LeftLeg LeftFoot
      LeftFoot LeftToeBase
      RightUpLeg RightLeg
      RightLeg RightFoot
      RightFoot RightToeBase
   end

# File created by Blade
# Date/Time:  Wed Sep 24 19:53:44 2014
# Frame Rate: 120.000 fps
#------------------------------------------------------
:FULLY-SPECIFIED
:DEGREES
557
root -6.425523 32.874422 -4.160746 7.029542 -5.183797 -1.338383
Spine -16.831598 -19.947159 6.826933
Head -1.594645 25.544870 15.078291
LeftShoulder 1.314849 -15.166377 40.400867
LeftArm 95.601390 -15.671174 -95.357271
LeftForeArm -67.942378 -0.000000 27.562887
LeftHand -18.492727 0.000000 7.806208
LeftHandThumb1 -26.253704 0.000000 33.147579
RightShoulder -17.380285 11.762487 -18.148532
RightArm -10.439399 -29.615073 88.973687
RightForeArm -21.288898 -0.000000 19.339916
RightHand -6.294057 -0.000000 11.149280
RightHandThumb1 -24.326973 -0.000000 -32.862282
LeftUpLeg 0.665606 12.511546 4.918724
LeftLeg -1.671364 -0.000000 0.000000
LeftFoot -10.865315 7.045700 -18.494825
LeftToeBase 11.421782 -0.000000 -0.000000
RightUpLeg -3.740053 -2.217896 -3.019113
RightLeg 2.327210 -0.000000 -0.000000
RightFoot -7.645160 -2.660866 -14.248851
RightToeBase -1.259228 -0.000000 0.000000
558
root -6.422457 32.874334 -4.158607 6.970253 -5.149265 -1.321835
Spine -16.801870 -19.964188 6.792144
Head -1.762999 26.155964 14.717048
LeftShoulder 1.273294 -15.052148 40.473563
LeftArm 95.268027 -15.250974 -93.266814
LeftForeArm -69.519465 -0.000000 24.730769
LeftHand -19.561934 -0.000000 8.351677
LeftHandThumb1 -26.253704 0.000000 33.147579
RightShoulder -17.393514 11.794004 -18.152610
RightArm -10.472372 -29.676468 88.993118
RightForeArm -21.234551 -0.000000 19.335101
RightHand -6.275756 -0.000000 11.153368
RightHandThumb1 -24.326973 -0.000000 -32.862282
LeftUpLeg 0.715602 12.480994 4.913737
LeftLeg -1.656019 -0.000000 0.000000
LeftFoot -10.874356 7.050990 -18.586733
LeftToeBase 11.416050 -0.000000 -0.000000
RightUpLeg -3.677428 -2.244528 -3.038118
RightLeg 2.336042 -0.000000 -0.000000
RightFoot -7.647252 -2.686273 -14.261066
RightToeBase -1.324035 -0.000000 0.000000
559
root -6.418697 32.874883 -4.156394 6.914318 -5.120198 -1.312369
Spine -16.774905 -19.995145 6.797886
Head -1.961082 26.742581 14.257884
LeftShoulder 1.209915 -14.789130 40.503451
LeftArm 95.062784 -14.758545 -91.007681
LeftForeArm -70.641136 -0.000000 22.058463
LeftHand -20.708922 -0.000000 9.371660
LeftHandThumb1 -26.253704 0.000000 33.147579
RightShoulder -17.400308 11.839197 -18.175489
RightArm -10.505960 -29.729793 89.013712
RightForeArm -21.223213 -0.000000 19.344827
RightHand -6.281145 -0.000000 11.187006
RightHandThumb1 -24.326973 -0.000000 -32.862282
LeftUpLeg 0.766291 12.494360 4.910502
LeftLeg -1.655055 -0.000000 0.000000
LeftFoot -10.852446 7.004547 -18.472620
LeftToeBase 11.446934 -0.000000 -0.000000
RightUpLeg -3.620910 -2.251351 -3.051826
RightLeg 2.350938 -0.000000 -0.000000
RightFoot -7.656179 -2.720812 -14.248634
RightToeBase -1.257132 -0.000000 0.000000
560
root -6.417335 32.875197 -4.151589 6.821004 -5.116231 -1.306279
Spine -16.698788 -20.003799 6.749267
Head -2.123320 27.312238 13.903675
LeftShoulder 1.212792 -14.472421 40.695435
LeftArm 94.871446 -14.264877 -89.131895
LeftForeArm -71.956637 0.000000 19.648432
LeftHand -22.359424 -0.000000 10.102073
LeftHandThumb1 -26.253704 0.000000 33.147579
RightShoulder -17.404104 11.850003 -18.142324
RightArm -10.502514 -29.824169 88.998253
RightForeArm -21.167986 -0.000000 19.361604
RightHand -6.288573 -0.000000 11.203683
RightHandThumb1 -24.326973 -0.000000 -32.862282
LeftUpLeg 0.871699 12.529704 4.926432
LeftLeg -1.660442 -0.000000 0.000000
LeftFoot -10.832765 6.967725 -18.547639
LeftToeBase 11.435389 -0.000000 -0.000000
RightUpLeg -3.533484 -2.282559 -3.058560
RightLeg 2.379719 -0.000000 -0.000000
RightFoot -7.677487 -2.708184 -14.249606
RightToeBase -1.271777 -0.000000 0.000000
561
root -6.413911 32.875560 -4.149846 6.761876 -5.092587 -1.300238
Spine -16.682603 -20.029232 6.745583
Head -2.266668 27.869801 13.456059
LeftShoulder 1.255024 -13.882242 40.602520
LeftArm 95.273904 -13.645798 -87.222710
LeftForeArm -73.213285 -0.000000 16.911298
LeftHand -23.702434 -0.000000 11.170503
LeftHandThumb1 -26.253704 0.000000 33.147579
RightShoulder -17.400867 11.823903 -18.139713
RightArm -10.459251 -29.911043 88.984383
RightForeArm -21.123408 -0.000000 19.360862
RightHand -6.285989 -0.000000 11.205887
RightHandThumb1 -24.326973 -0.000000 -32.862282
LeftUpLeg 0.926647 12.522384 4.927426
LeftLeg -1.657889 -0.000000 0.000000
LeftFoot -10.827760 6.944051 -18.472484
LeftToeBase 11.457332 -0.000000 -0.000000
RightUpLeg -3.472740 -2.293738 -3.069368
RightLeg 2.388121 -0.000000 -0.000000
RightFoot -7.669418 -2.736716 -14.267660
RightToeBase -1.256054 -0.000000 0.000000
562
root -6.411202 32.876866 -4.149030 6.710575 -5.080007 -1.304844
Spine -16.667855 -20.064570 6.751428
Head -2.429921 28.325357 13.143919
LeftShoulder 1.287062 -13.749673 40.679961
LeftArm 95.047716 -12.960674 -85.753701
LeftForeArm -74.633439 -0.000000 14.705227
LeftHand -25.263883 -0.000000 12.515209
LeftHandThumb1 -26.253704 0.000000 33.147579
RightShoulder -17.387075 11.813674 -18.112534
RightArm -10.417522 -29.988316 88.947749
RightForeArm -21.089730 -0.000000 19.368688
RightHand -6.271580 0.000000 11.213463
RightHandThumb1 -24.326973 -0.000000 -32.862282
LeftUpLeg 0.971986 12.530275 4.938799
LeftLeg -1.644935 -0.000000 0.000000
LeftFoot -10.828500 6.944657 -18.411757
LeftToeBase 11.285918 -0.000000 -0.000000
RightUpLeg -3.414998 -2.279980 -3.071323
RightLeg 2.379484 -0.000000 -0.000000
RightFoot -7.645420 -2.745549 -14.243996
RightToeBase -1.263385 -0.000000 0.000000
563
root -6.407761 32.878573 -4.149064 6.663624 -5.061340 -1.308661
Spine -16.643967 -20.124037 6.772916
Head -2.581629 28.889063 12.751070
LeftShoulder 1.317659 -13.789354 40.793822
LeftArm 94.560470 -12.196879 -84.721752
LeftForeArm -76.057420 -0.000000 13.003751
LeftHand -26.966263 -0.000000 14.018224
LeftHandThumb1 -26.253704 0.000000 33.147579
RightShoulder -17.381903 11.824105 -18.088492
RightArm -10.375117 -30.042349 88.904985
RightForeArm -21.082946 -0.000000 19.386233
RightHand -6.272251 -0.000000 11.195394
RightHandThumb1 -24.326973 -0.000000 -32.862282
LeftUpLeg 1.011056 12.538730 4.946895
LeftLeg -1.639014 -0.000000 0.000000
LeftFoot -10.808138 6.912163 -18.451160
LeftToeBase 11.458584 -0.000000 -0.000000
RightUpLeg -3.370521 -2.294573 -3.072222
RightLeg 2.386553 -0.000000 -0.000000
RightFoot -7.631019 -2.752314 -14.246622
RightToeBase -1.219604 -0.000000 0.000000
564
root -6.403703 32.879219 -4.149246 6.621496 -5.051160 -1.309624
Spine -16.622412 -20.184216 6.800998
Head -2.751231 29.412245 12.385434
LeftShoulder 1.393438 -13.937263 40.919000
LeftArm 93.883890 -11.411609 -84.091295
LeftForeArm -77.598796 0.000000 11.843299
LeftHand -28.785340 -0.000000 15.897170
LeftHandThumb1 -26.253704 0.000000 33.147579
RightShoulder -17.376589 11.825274 -18.073188
RightArm -10.327923 -30.079293 88.862346
RightForeArm -21.102229 -0.000000 19.427230
RightHand -6.292668 -0.000000 11.191476
RightHandThumb1 -24.326973 -0.000000 -32.862282
LeftUpLeg 1.048486 12.518066 4.949416
LeftLeg -1.632240 -0.000000 0.000000
LeftFoot -10.808356 6.941638 -18.406279
LeftToeBase 11.255636 -0.000000 -0.000000
RightUpLeg -3.334684 -2.289200 -3.076862
RightLeg 2.403643 -0.000000 -0.000000
RightFoot -7.623502 -2.765184 -14.213783
RightToeBase -1.278036 -0.000000 0.000000
565
root -6.401183 32.880248 -4.149832 6.583303 -5.047077 -1.319280
Spine -16.595014 -20.237415 6.842233
Head -2.927793 29.879642 12.040134
LeftShoulder 1.525932 -14.300687 41.054046
LeftArm 92.871193 -10.611161 -84.005395
LeftForeArm -79.188618 -0.000000 11.291717
LeftHand -30.553675 -0.000000 17.712436
LeftHandThumb1 -26.253704 0.000000 33.147579
RightShoulder -17.373676 11.829136 -18.059132
RightArm -10.294195 -30.099736 88.820780
RightForeArm -21.082803 0.000000 19.489183
RightHand -6.294341 0.000000 11.131464
RightHandThumb1 -24.326973 -0.000000 -32.862282
LeftUpLeg 1.084262 12.520480 4.965355
LeftLeg -1.625423 -0.000000 0.000000
LeftFoot -10.809601 6.934984 -18.499911
LeftToeBase 11.420294 -0.000000 -0.000000
RightUpLeg -3.299900 -2.298710 -3.074770
RightLeg 2.409052 -0.000000 -0.000000
RightFoot -7.611406 -2.741884 -14.182962
RightToeBase -1.278738 -0.000000 0.000000
566
root -6.397183 32.880806 -4.151612 6.543149 -5.034649 -1.327048
Spine -16.555190 -20.298527 6.888714
Head -3.102413 30.376150 11.698420
LeftShoulder 1.749609 -14.463976 41.003606
LeftArm 92.083284 -9.882951 -84.104818
LeftForeArm -80.813614 -0.000000 11.040903
LeftHand -31.906935 -0.000000 19.182004
LeftHandThumb1 -26.253704 0.000000 33.147579
RightShoulder -17.371712 11.832355 -18.042518
RightArm -10.253612 -30.081790 88.766195
RightForeArm -21.081583 -0.000000 19.567775
RightHand -6.299794 -0.000000 11.081520
RightHandThumb1 -24.326973 -0.000000 -32.862282
LeftUpLeg 1.116099 12.490818 4.974356
LeftLeg -1.619652 -0.000000 0.000000
LeftFoot -10.811897 6.946958 -18.533781
LeftToeBase 11.407171 -0.000000 -0.000000
RightUpLeg -3.266292 -2.298433 -3.072582
RightLeg 2.420847 -0.000000 -0.000000
RightFoot -7.601651 -2.757479 -14.203113
RightToeBase -1.236761 -0.000000 0.000000
